<?xml version="1.0" encoding="UTF-8" standalone="no"?><svg xmlns="http://www.w3.org/2000/svg" xmlns:xlink="http://www.w3.org/1999/xlink" contentScriptType="application/ecmascript" contentStyleType="text/css" height="187px" preserveAspectRatio="none" style="width:525px;height:187px;" version="1.1" viewBox="0 0 525 187" width="525px" zoomAndPan="magnify"><defs><filter height="300%" id="f154gz87kuagam" width="300%" x="-1" y="-1"><feGaussianBlur result="blurOut" stdDeviation="2.0"/><feColorMatrix in="blurOut" result="blurOut2" type="matrix" values="0 0 0 0 0 0 0 0 0 0 0 0 0 0 0 0 0 0 .4 0"/><feOffset dx="4.0" dy="4.0" in="blurOut2" result="blurOut3"/><feBlend in="SourceGraphic" in2="blurOut3" mode="normal"/></filter></defs><g><rect fill="#F8F8F8" filter="url(#f154gz87kuagam)" height="36.2969" rx="12.5" ry="12.5" style="stroke: #383838; stroke-width: 1.5;" width="98" x="300" y="76.2969"/><text fill="#000000" font-family="sans-serif" font-size="14" lengthAdjust="spacingAndGlyphs" textLength="78" x="310" y="99.292">Data plane</text><rect fill="#F8F8F8" filter="url(#f154gz87kuagam)" height="36.2969" rx="12.5" ry="12.5" style="stroke: #383838; stroke-width: 1.5;" width="53" x="448" y="20"/><text fill="#000000" font-family="sans-serif" font-size="14" lengthAdjust="spacingAndGlyphs" textLength="33" x="458" y="42.9951">http</text><path d="M398,94.4453 L408,94.4453 C423,94.4453 423,38.1484 438,38.1484 L448,38.1484 " fill="none" style="stroke: #383838; stroke-width: 1.0;"/><rect fill="#F8F8F8" filter="url(#f154gz87kuagam)" height="36.2969" rx="12.5" ry="12.5" style="stroke: #383838; stroke-width: 1.5;" width="45" x="448" y="76.2969"/><text fill="#000000" font-family="sans-serif" font-size="14" lengthAdjust="spacingAndGlyphs" textLength="25" x="458" y="99.292">tcp</text><path d="M398,94.4453 L408,94.4453 C423,94.4453 423,94.4453 438,94.4453 L448,94.4453 " fill="none" style="stroke: #383838; stroke-width: 1.0;"/><rect fill="#F8F8F8" filter="url(#f154gz87kuagam)" height="36.2969" rx="12.5" ry="12.5" style="stroke: #383838; stroke-width: 1.5;" width="58" x="448" y="132.5938"/><text fill="#000000" font-family="sans-serif" font-size="14" lengthAdjust="spacingAndGlyphs" textLength="38" x="458" y="155.5889">gRPC</text><path d="M398,94.4453 L408,94.4453 C423,94.4453 423,150.7422 438,150.7422 L448,150.7422 " fill="none" style="stroke: #383838; stroke-width: 1.0;"/><rect fill="#F8F8F8" filter="url(#f154gz87kuagam)" height="36.2969" rx="12.5" ry="12.5" style="stroke: #383838; stroke-width: 1.5;" width="118" x="132" y="76.2969"/><text fill="#000000" font-family="sans-serif" font-size="14" lengthAdjust="spacingAndGlyphs" textLength="98" x="142" y="99.292">Control plane</text><rect fill="#F8F8F8" filter="url(#f154gz87kuagam)" height="36.2969" rx="12.5" ry="12.5" style="stroke: #383838; stroke-width: 1.5;" width="72" x="10" y="48.1484"/><text fill="#000000" font-family="sans-serif" font-size="14" lengthAdjust="spacingAndGlyphs" textLength="52" x="20" y="71.1436">expose</text><path d="M132,94.4453 L122,94.4453 C107,94.4453 107,66.2969 92,66.2969 L82,66.2969 " fill="none" style="stroke: #383838; stroke-width: 1.0;"/><rect fill="#F8F8F8" filter="url(#f154gz87kuagam)" height="36.2969" rx="12.5" ry="12.5" style="stroke: #383838; stroke-width: 1.5;" width="52" x="30" y="104.4453"/><text fill="#000000" font-family="sans-serif" font-size="14" lengthAdjust="spacingAndGlyphs" textLength="32" x="40" y="127.4404">bind</text><path d="M132,94.4453 L122,94.4453 C107,94.4453 107,122.5938 92,122.5938 L82,122.5938 " fill="none" style="stroke: #383838; stroke-width: 1.0;"/><path d="M300,94.4453 L290,94.4453 C275,94.4453 275,94.4453 260,94.4453 L250,94.4453 " fill="none" style="stroke: #383838; stroke-width: 1.0;"/><!--MD5=[71e21f4b0243eb0c269e93966b0f50cd]
@startmindmap
skinparam monochrome true
* Data plane
** http
** tcp
** gRPC

left

** Control plane
*** expose
*** bind
@endmindmap

PlantUML version 1.2020.15beta1(Unknown compile time)
(GPL source distribution)
Java Runtime: Java(TM) SE Runtime Environment
JVM: Java HotSpot(TM) 64-Bit Server VM
Default Encoding: UTF-8
Language: en
Country: US
--></g></svg>